PathFileType	4	(X/Y/Z)	C:/Git/opensim_tutorial/tutorials/repeated_sprinting/Simulations/PC013/markers.trc	
DataRate	CameraRate	NumFrames	NumMarkers	Units	OrigDataRate	OrigDataStartFrame	OrigNumFrames	
100.00	100.00	4	49	mm	100.00	2788	302	
Frame#	Time	RASIS			LASIS			RPSIS			LPSIS			RTH1			RTH2			RTH3			RTH4			LTH1			LTH2			LTH3			LTH4			RLK			LLK			RSK1			RSK2			RSK3			RSK4			LSK1			LSK2			LSK3			LSK4			RLA			RMA			RHEE			RPCA			RLCA			RSTL			RP1MT			RD1MT			RP5MT			RD5MT			RTOE			RHLX			LLA			LMA			LHEE			LPCA			LLCA			LSTL			LP1MT			LP5MT			LD5MT			LTOE			RAC			LAC			C7			STRN1			STRN2			
		X1	Y1	Z1	X2	Y2	Z2	X3	Y3	Z3	X4	Y4	Z4	X5	Y5	Z5	X6	Y6	Z6	X7	Y7	Z7	X8	Y8	Z8	X9	Y9	Z9	X10	Y10	Z10	X11	Y11	Z11	X12	Y12	Z12	X13	Y13	Z13	X14	Y14	Z14	X15	Y15	Z15	X16	Y16	Z16	X17	Y17	Z17	X18	Y18	Z18	X19	Y19	Z19	X20	Y20	Z20	X21	Y21	Z21	X22	Y22	Z22	X23	Y23	Z23	X24	Y24	Z24	X25	Y25	Z25	X26	Y26	Z26	X27	Y27	Z27	X28	Y28	Z28	X29	Y29	Z29	X30	Y30	Z30	X31	Y31	Z31	X32	Y32	Z32	X33	Y33	Z33	X34	Y34	Z34	X35	Y35	Z35	X36	Y36	Z36	X37	Y37	Z37	X38	Y38	Z38	X39	Y39	Z39	X40	Y40	Z40	X41	Y41	Z41	X42	Y42	Z42	X43	Y43	Z43	X44	Y44	Z44	X45	Y45	Z45	X46	Y46	Z46	X47	Y47	Z47	X48	Y48	Z48	X49	Y49	Z49	

1	0.000	857.01575	130.79512	800.89624	835.60468	-86.92724	812.82947	1025.44934	57.26913	847.98944	1019.30328	-43.17093	850.90955	869.12933	162.15511	555.97101	857.03210	148.07468	497.73450	807.30829	134.16130	479.02728	807.32062	129.83029	543.26630	815.34534	-122.39126	574.39240	780.16187	-97.53506	506.67453	750.00360	-99.92409	557.27057	776.24084	-115.74987	606.91132	804.82794	110.89197	352.37357	687.17963	-63.13841	407.73929	1021.30334	108.57924	275.92627	970.85034	125.36280	225.93294	1021.05536	125.94171	239.24126	1052.91882	121.58839	216.70900	776.54358	-96.95129	220.54866	748.28851	-83.81041	245.58966	753.09607	-97.25018	283.11435	789.26019	-99.01531	301.09473	1128.77087	127.19239	147.76569	1100.29236	55.50208	108.82285	1193.56384	71.90502	145.47401	1156.79883	75.04361	163.52943	1169.56934	116.12021	135.54553	1159.96362	49.26855	116.31834	1069.22888	85.77117	73.78988	1052.15112	98.72070	34.27455	1139.06604	153.45293	87.04247	1105.34692	179.49983	60.28847	1058.07080	145.79137	69.97810	1029.11743	116.06054	16.40590	888.43591	-120.79421	77.02554	852.47357	-45.06360	46.76816	946.71960	-69.61705	54.45026	924.93524	-68.50949	81.69399	927.46790	-113.46626	52.18724	913.70941	-45.54053	41.58827	806.78253	-74.41298	45.21000	871.74036	-154.23116	22.10574	824.77142	-182.76289	21.17257	788.93542	-127.71605	53.66062	850.56006	168.10909	1254.18066	943.01099	-163.47710	1278.78796	914.82153	14.07457	1325.87524	782.50958	-14.41428	1252.03979	765.69330	-27.33530	1196.83899 
2	0.010	852.56152	128.82014	803.82800	830.05157	-88.83813	815.50964	1020.56262	54.73127	850.68750	1013.66388	-45.78863	853.62170	863.33746	163.19261	560.51099	850.07306	150.29285	502.09174	799.88397	137.55045	484.09454	800.90979	132.00856	548.31055	811.75409	-124.29825	575.84186	777.15869	-99.20188	507.82916	746.63428	-101.53636	558.28345	772.41504	-117.41124	608.09119	797.61505	116.11992	356.58035	685.23352	-63.87366	407.97046	1013.95746	107.55354	280.36783	964.01825	126.64972	230.54932	1014.03027	125.23182	243.72978	1045.77295	120.25240	221.17036	775.41315	-97.47629	220.79472	747.04822	-84.24767	245.60983	751.46143	-97.93861	283.17621	787.59058	-100.20409	301.36789	1121.62878	124.23730	151.93369	1091.50781	53.30820	113.06699	1184.90503	66.82533	151.29572	1147.60352	71.82664	168.44446	1162.25293	111.82137	140.77689	1150.98511	45.15128	121.67542	1062.14551	83.29045	77.47820	1046.74194	96.94236	36.43610	1133.64478	149.62363	91.18772	1101.08838	176.01118	63.46023	1053.13477	144.10385	71.79945	1025.18408	115.04824	17.11941	888.21185	-121.39009	77.52773	852.70081	-45.50668	47.23610	946.92896	-70.41826	55.55892	924.68384	-68.98809	82.15072	927.40143	-114.06442	52.84267	914.05786	-46.12823	42.41593	806.99054	-74.74602	45.43733	871.77673	-154.53726	21.74554	824.85474	-183.04984	20.95151	789.08850	-128.04314	53.66044	845.37128	165.98311	1257.55164	934.46887	-166.64806	1280.50354	908.13971	11.38807	1328.30811	775.71936	-15.56253	1253.86401	759.00812	-28.12065	1198.82788 
3	0.020	848.47406	126.25819	806.43292	824.50427	-90.87945	818.10577	1015.61176	51.85713	853.53516	1008.11371	-48.51878	856.25232	857.77295	164.13313	564.99963	843.66461	152.35413	506.57346	792.98035	141.04486	488.87128	794.57385	134.37517	552.93726	807.85797	-126.10801	577.31329	773.86340	-100.78489	509.23022	743.01227	-102.77444	559.51129	768.40228	-118.89927	609.37225	790.16187	121.28625	360.84457	683.78351	-64.60607	408.09064	1005.89600	106.86655	284.57825	956.64545	127.93842	234.95152	1006.50757	124.77818	247.91138	1038.29346	119.06852	225.21126	774.35327	-97.95084	221.03578	745.97009	-84.72847	245.97650	750.31061	-98.57897	283.47375	786.35779	-101.20022	301.71490	1113.56909	121.83938	155.38809	1082.11340	51.19788	116.75514	1175.40674	62.74664	156.33383	1138.30359	68.86813	173.03041	1154.05139	108.43472	145.16042	1141.28442	41.70487	126.33847	1054.72327	83.76211	79.51698	1039.95422	95.03973	38.33107	1126.97668	146.13255	94.77457	1095.13049	172.87192	66.33973	1046.57556	142.32944	73.95190	1021.00122	114.23322	17.61118	888.04761	-122.01835	77.87261	852.90607	-45.90778	47.75685	947.01746	-71.14761	56.29494	924.80896	-69.80938	82.96338	927.41138	-114.91399	53.81785	914.34155	-46.70417	43.11863	807.25122	-75.05447	45.58961	871.93286	-154.90485	21.53901	824.89270	-183.36942	20.64795	789.31494	-128.45770	53.76786	840.25372	164.19418	1260.78735	926.21265	-169.27332	1282.08203	901.67706	8.78704	1330.83948	769.49695	-16.54569	1256.11938	752.38965	-28.54680	1200.67676 
4	0.030	843.73132	123.80730	809.05200	818.84137	-92.92751	820.44110	1010.49512	49.34956	855.98260	1002.46649	-51.12817	858.82831	852.35229	165.05437	569.36243	837.57526	154.43321	510.86081	786.51709	144.61334	493.42807	788.35101	136.95128	557.24213	803.84387	-127.79874	578.82574	770.44440	-102.18575	510.39120	739.35663	-103.82230	560.56287	764.28015	-120.14101	610.67499	782.34637	126.22077	365.26508	682.76147	-65.20200	407.95496	997.29712	106.48769	288.04877	948.40405	129.45303	239.22014	998.23254	124.54225	251.62428	1029.80432	118.21761	228.89426	773.51923	-98.35081	221.26266	745.10974	-85.07579	246.31213	749.53015	-99.10780	283.84976	785.59784	-101.81194	302.03616	1104.59143	119.54198	158.59387	1071.92200	49.20914	120.69839	1165.16467	59.57062	160.00690	1128.17590	66.35629	176.58289	1144.84045	105.53045	148.40411	1130.90430	38.65665	130.27814	1045.51770	81.70587	82.75062	1030.95813	93.46853	41.16864	1118.68213	143.24748	97.91889	1087.33093	170.12819	68.95093	1038.32629	140.68646	76.21201	1014.15143	113.49529	18.30749	887.93372	-122.62337	78.23111	853.32654	-46.28924	48.26896	947.10986	-71.74014	56.76816	924.99286	-70.58490	83.60663	927.39233	-115.43047	54.03168	914.66937	-47.30482	43.62632	807.54211	-75.33385	45.69884	872.09290	-155.24893	21.25695	824.87622	-183.62991	20.34093	789.52606	-128.74930	53.69133	835.44647	162.42215	1263.83826	918.08893	-171.52107	1283.32117	895.42993	6.41029	1333.19788	762.77344	-17.11930	1258.16553	745.84491	-28.90122	1202.83484 
